<svg width="58" height="60" viewBox="0 0 58 60" fill="none" xmlns="http://www.w3.org/2000/svg">
<path d="M40.0029 23.767C40.6793 23.0036 40.6295 21.8176 39.8916 21.1178C39.1537 20.4181 38.0071 20.4697 37.3307 21.233L25.3182 34.7895L20.6151 29.9242C19.9073 29.192 18.7597 29.192 18.0519 29.9242C17.344 30.6564 17.344 31.8436 18.0519 32.5758L24.0935 38.8258C24.4431 39.1875 24.9203 39.3857 25.4145 39.3746C25.9088 39.3635 26.3772 39.144 26.7113 38.767L40.0029 23.767Z" fill="#067647"/>
<path fill-rule="evenodd" clip-rule="evenodd" d="M29.0002 56.875C14.6523 56.875 3.021 44.8427 3.021 30C3.021 15.1573 14.6523 3.125 29.0002 3.125C43.3481 3.125 54.9793 15.1573 54.9793 30C54.9793 44.8427 43.3481 56.875 29.0002 56.875ZM6.646 30C6.646 42.7716 16.6543 53.125 29.0002 53.125C41.346 53.125 51.3543 42.7716 51.3543 30C51.3543 17.2284 41.346 6.875 29.0002 6.875C16.6543 6.875 6.646 17.2284 6.646 30Z" fill="#067647"/>
</svg>
