<svg width="35" height="35" viewBox="0 0 35 35" fill="none" xmlns="http://www.w3.org/2000/svg">
<path d="M17.3681 1.76855C26.1554 1.76863 33.2792 8.89234 33.2792 17.6797C33.2792 26.4669 26.1554 33.5907 17.3681 33.5908C8.58076 33.5908 1.45705 26.467 1.45697 17.6797C1.45697 8.89229 8.58071 1.76855 17.3681 1.76855Z" fill="#F3F4F6" stroke="#392015" stroke-width="2"/>
<path fill-rule="evenodd" clip-rule="evenodd" d="M17.3678 8.72119C15.1931 8.72119 13.4303 10.6799 13.4303 13.0962C13.4303 15.5124 15.1931 17.4712 17.3678 17.4712C19.5424 17.4712 21.3053 15.5124 21.3053 13.0962C21.3053 10.6799 19.5424 8.72119 17.3678 8.72119ZM14.5553 13.0962C14.5553 11.3703 15.8145 9.97119 17.3678 9.97119C18.9211 9.97119 20.1803 11.3703 20.1803 13.0962C20.1803 14.8221 18.9211 16.2212 17.3678 16.2212C15.8145 16.2212 14.5553 14.8221 14.5553 13.0962Z" fill="black"/>
<path fill-rule="evenodd" clip-rule="evenodd" d="M22.0394 20.2455C21.9174 20.1691 21.8097 20.1015 21.7225 20.0438C19.057 18.2803 15.6788 18.2803 13.0133 20.0438C12.9261 20.1016 12.8183 20.1691 12.6963 20.2456C12.1617 20.5807 11.3536 21.0873 10.7999 21.6894C10.4537 22.066 10.1247 22.5622 10.0649 23.1702C10.0013 23.8167 10.2551 24.4234 10.7644 24.9625C11.643 25.8925 12.6973 26.6379 14.0611 26.6379H20.6747C22.0385 26.6379 23.0928 25.8925 23.9714 24.9625C24.4807 24.4234 24.7345 23.8167 24.6709 23.1702C24.6111 22.5622 24.2821 22.066 23.9359 21.6894C23.3822 21.0873 22.574 20.5806 22.0394 20.2455ZM13.5889 21.1179C15.8997 19.589 18.8361 19.589 21.1469 21.1179C21.2729 21.2012 21.4108 21.2881 21.5553 21.3792C22.0898 21.7161 22.7139 22.1095 23.1489 22.5827C23.419 22.8764 23.5342 23.1188 23.5526 23.306C23.5672 23.4546 23.5334 23.6997 23.1954 24.0575C22.4185 24.8799 21.6291 25.3879 20.6747 25.3879H14.0611C13.1067 25.3879 12.3173 24.8799 11.5404 24.0575C11.2024 23.6997 11.1686 23.4546 11.1832 23.306C11.2016 23.1188 11.3168 22.8764 11.5869 22.5827C12.0219 22.1095 12.646 21.7162 13.1804 21.3793C13.3249 21.2882 13.463 21.2011 13.5889 21.1179Z" fill="black"/>
</svg>
